<svg xmlns="http://www.w3.org/2000/svg" viewBox="0 0 100 100">
  <defs>
    <linearGradient id="lm" x1="14" y1="10" x2="86" y2="90" gradientUnits="userSpaceOnUse">
      <stop offset="0" stop-color="#c8bcff"/>
      <stop offset="0.5" stop-color="#7c6cff"/>
      <stop offset="1" stop-color="#4f83ff"/>
    </linearGradient>
  </defs>
  <rect width="100" height="100" rx="24" fill="#0b0b10"/>
  <g fill="url(#lm)">
    <path transform="rotate(0 50 50)" d="M50 50 C 51 33 57 15 68 5 C 63 22 59 39 55 49 C 53 50 51 50 50 50 Z"/>
    <path transform="rotate(90 50 50)" d="M50 50 C 51 33 57 15 68 5 C 63 22 59 39 55 49 C 53 50 51 50 50 50 Z"/>
    <path transform="rotate(180 50 50)" d="M50 50 C 51 33 57 15 68 5 C 63 22 59 39 55 49 C 53 50 51 50 50 50 Z"/>
    <path transform="rotate(270 50 50)" d="M50 50 C 51 33 57 15 68 5 C 63 22 59 39 55 49 C 53 50 51 50 50 50 Z"/>
  </g>
</svg>
